<svg width="30" height="34" fill="none" xmlns="http://www.w3.org/2000/svg"><path d="M1 11.5h28m-28 0v15.4c0 1.96 0 2.94.381 3.689a3.5 3.5 0 001.53 1.53c.748.381 1.727.381 3.684.381h16.81c1.957 0 2.935 0 3.683-.381a3.505 3.505 0 001.53-1.53C29 29.84 29 28.863 29 26.906V11.5m-28 0v-1.4c0-1.96 0-2.94.381-3.69a3.498 3.498 0 011.53-1.529C3.659 4.5 4.64 4.5 6.6 4.5H8m21 7v-1.405c0-1.957 0-2.936-.381-3.684a3.502 3.502 0 00-1.531-1.53C26.339 4.5 25.36 4.5 23.4 4.5H22M22 1v3.5m0 0H8M8 1v3.5" stroke="#fff" stroke-width="2" stroke-linecap="round" stroke-linejoin="round"/></svg>