<svg width="35" height="35" fill="none" xmlns="http://www.w3.org/2000/svg"><path d="M21.875 24.792v1.458a4.375 4.375 0 01-8.75 0v-1.458m8.75 0h-8.75m8.75 0h5.236c.558 0 .838 0 1.064-.077.431-.145.769-.484.914-.915.077-.227.077-.508.077-1.07 0-.247 0-.37-.02-.487a1.456 1.456 0 00-.253-.614c-.07-.097-.157-.184-.33-.358l-.569-.568a.977.977 0 01-.286-.691v-5.429c0-5.638-4.57-10.208-10.208-10.208S7.29 8.945 7.29 14.583v5.429c0 .26-.103.508-.286.69l-.568.569a3.12 3.12 0 00-.33.358 1.457 1.457 0 00-.255.614c-.019.117-.019.24-.019.487 0 .562 0 .843.077 1.07.145.431.484.77.916.915.226.077.505.077 1.063.077h5.236" stroke="#fff" stroke-width="2" stroke-linecap="round" stroke-linejoin="round"/></svg>