<svg width="23" height="20" fill="none" xmlns="http://www.w3.org/2000/svg"><path d="M20.313 9.628h-3.25V3.7a.69.69 0 00-.099-.35.772.772 0 00-.267-.265L11.822.122a.87.87 0 00-.894 0L6.053 3.086a.772.772 0 00-.267.265.69.69 0 00-.098.35v5.927h-3.25c-.647 0-1.267.234-1.724.65A2.128 2.128 0 000 11.85v7.41a.71.71 0 00.238.523.854.854 0 00.575.217h21.125a.854.854 0 00.574-.217.71.71 0 00.238-.524V11.85c0-.59-.257-1.155-.714-1.571a2.562 2.562 0 00-1.724-.651zM1.625 11.85a.71.71 0 01.238-.524.854.854 0 01.575-.217h3.25v7.41H1.625V11.85zm5.688-1.482V4.071l4.062-2.445 4.063 2.445v14.447h-1.626V11.85a.71.71 0 00-.237-.524.854.854 0 00-.575-.217H9.75a.854.854 0 00-.575.217.71.71 0 00-.238.524v6.668H7.313v-8.15zm3.25 8.15v-5.927h1.624v5.927h-1.624zm10.562 0h-4.063V11.11h3.25c.216 0 .423.079.575.217a.71.71 0 01.238.524v6.668z" fill="#54004D"/><path d="M9.75 5.923H13a.854.854 0 00.575-.217.71.71 0 00.238-.524.71.71 0 00-.239-.524.854.854 0 00-.574-.217H9.75a.854.854 0 00-.575.217.71.71 0 00-.238.524.71.71 0 00.238.524.854.854 0 00.575.217zM9.75 8.887H13a.854.854 0 00.575-.217.71.71 0 00.238-.524.71.71 0 00-.239-.524.854.854 0 00-.574-.217H9.75a.854.854 0 00-.575.217.71.71 0 00-.238.524.71.71 0 00.238.524.854.854 0 00.575.217z" fill="#54004D"/></svg>