<svg width="30" height="31" fill="none" xmlns="http://www.w3.org/2000/svg"><path d="M29 24.35v-9.71c0-.935 0-1.402-.114-1.838-.101-.385-.267-.75-.49-1.08-.253-.372-.604-.68-1.308-1.296l-8.4-7.35c-1.307-1.144-1.96-1.715-2.695-1.932a3.504 3.504 0 00-1.986 0c-.735.217-1.387.788-2.692 1.93l-8.403 7.352c-.703.615-1.054.924-1.307 1.296a3.5 3.5 0 00-.491 1.08C1 13.238 1 13.705 1 14.64v9.71c0 1.63 0 2.445.266 3.088a3.5 3.5 0 001.894 1.895c.643.267 1.459.267 3.09.267 1.63 0 2.447 0 3.09-.267a3.5 3.5 0 001.893-1.894c.267-.644.267-1.46.267-3.09V22.6a3.5 3.5 0 117 0v1.75c0 1.63 0 2.446.266 3.09a3.5 3.5 0 001.894 1.894c.643.267 1.459.267 3.09.267 1.63 0 2.447 0 3.09-.267a3.5 3.5 0 001.893-1.895C29 26.795 29 25.98 29 24.35z" stroke="#fff" stroke-width="2" stroke-linecap="round" stroke-linejoin="round"/></svg>