<svg width="38" height="38" fill="none" xmlns="http://www.w3.org/2000/svg"><path d="M18.655.628c-5.066 0-5.702.022-7.692.111-1.985.09-3.34.398-4.527.851a9.153 9.153 0 00-3.304 2.113A8.979 8.979 0 00.979 6.948C.516 8.113.2 9.445.112 11.394.023 13.35 0 13.974 0 18.95c0 4.976.023 5.598.113 7.552.091 1.95.405 3.282.866 4.447a8.963 8.963 0 002.152 3.245 9.152 9.152 0 003.303 2.115c1.187.453 2.543.762 4.528.851 1.99.089 2.625.11 7.691.11 5.067 0 5.7-.021 7.69-.11 1.986-.09 3.343-.398 4.53-.851a9.144 9.144 0 003.302-2.115 8.978 8.978 0 002.153-3.245c.459-1.165.773-2.497.867-4.446.09-1.954.112-2.577.112-7.553s-.023-5.6-.112-7.554c-.093-1.95-.408-3.282-.867-4.447a8.976 8.976 0 00-2.153-3.245 9.135 9.135 0 00-3.303-2.113c-1.19-.453-2.546-.762-4.532-.85-1.99-.09-2.623-.112-7.69-.112h.005zM16.982 3.93h1.673c4.98 0 5.571.017 7.538.105 1.819.082 2.806.38 3.463.631.87.332 1.491.73 2.144 1.37a5.677 5.677 0 011.396 2.107c.255.645.56 1.615.642 3.401.09 1.931.109 2.511.109 7.4 0 4.89-.02 5.47-.109 7.402-.083 1.786-.387 2.755-.642 3.4a5.656 5.656 0 01-1.396 2.105 5.78 5.78 0 01-2.144 1.37c-.657.252-1.644.55-3.463.632-1.967.087-2.557.106-7.538.106-4.98 0-5.571-.019-7.538-.107-1.818-.082-2.806-.38-3.463-.631-.871-.332-1.493-.73-2.146-1.37a5.67 5.67 0 01-1.396-2.106c-.255-.645-.56-1.615-.642-3.4-.09-1.932-.107-2.512-.107-7.405 0-4.892.018-5.47.107-7.4.083-1.787.387-2.756.642-3.402a5.668 5.668 0 011.396-2.107c.653-.641 1.275-1.038 2.146-1.37.657-.253 1.645-.55 3.463-.633 1.721-.076 2.388-.099 5.865-.103v.005z" fill="#fff"/><path d="M28.572 6.927c-.442 0-.875.129-1.243.37a2.207 2.207 0 00-.825.987c-.17.402-.214.844-.127 1.27.086.427.3.819.613 1.126a2.276 2.276 0 002.44.476 2.23 2.23 0 001.004-.81c.246-.361.377-.787.377-1.221 0-1.214-1.003-2.198-2.239-2.198z" fill="#fff"/><path fill-rule="evenodd" clip-rule="evenodd" d="M18.615 9.496c-5.29 0-9.58 4.212-9.58 9.408s4.29 9.407 9.58 9.407 9.578-4.211 9.578-9.407-4.288-9.408-9.578-9.408zm.039 15.464c3.38 0 6.12-2.69 6.12-6.01 0-3.321-2.74-6.012-6.12-6.012s-6.121 2.691-6.121 6.011c0 3.32 2.74 6.011 6.12 6.011z" fill="#fff"/></svg>