<svg width="87" height="70" fill="none" xmlns="http://www.w3.org/2000/svg"><path d="M2.153 30.772V3.783H20.71v5.963H10.57v5.453h9.396v5.256H10.57v10.317H2.153zm29.332.314c-1.801 0-3.433-.432-4.894-1.295-1.462-.889-2.623-2.105-3.485-3.648-.835-1.543-1.252-3.308-1.252-5.296 0-1.987.417-3.726 1.252-5.217.862-1.49 2.023-2.654 3.485-3.491 1.461-.863 3.093-1.295 4.893-1.295 1.28 0 2.52.353 3.72 1.06 1.2.706 2.127 1.87 2.78 3.49V11.12h8.143v19.653h-8.222v-3.648c-.626 1.281-1.462 2.262-2.505 2.942-1.044.68-2.35 1.02-3.915 1.02zm2.544-6.198a3.73 3.73 0 002.74-1.138c.758-.784 1.136-1.739 1.136-2.863 0-1.125-.378-2.04-1.135-2.746-.757-.732-1.67-1.099-2.74-1.099-1.123 0-2.063.38-2.82 1.138-.756.758-1.135 1.687-1.135 2.785 0 1.099.379 2.027 1.136 2.785.756.759 1.696 1.138 2.818 1.138zm25.695 6.198c-2.192 0-4.085-.432-5.677-1.295-1.592-.863-2.819-2.04-3.68-3.53-.861-1.517-1.292-3.256-1.292-5.217 0-1.936.444-3.675 1.331-5.218.888-1.543 2.127-2.759 3.72-3.648 1.618-.89 3.484-1.334 5.598-1.334 2.532 0 4.528.523 5.99 1.57l-.861 5.334a8.276 8.276 0 00-1.84-.588 7.412 7.412 0 00-1.645-.196c-1.279 0-2.297.366-3.053 1.098-.731.706-1.097 1.674-1.097 2.903 0 1.203.366 2.184 1.096 2.942.731.733 1.697 1.099 2.898 1.099 1.044 0 2.27-.223 3.68-.667l.744 5.492c-.862.418-1.762.732-2.702.941-.913.21-1.983.314-3.21.314zM2.154 59.714v-26.99h8.456v20.792h9.552l-.391 6.198H2.153zm35.398 0V40.06h8.143v4.276c.6-1.464 1.488-2.589 2.662-3.373 1.2-.785 2.623-1.177 4.268-1.177 2.557 0 4.541.889 5.95 2.667 1.41 1.752 2.114 4.237 2.114 7.454v9.807h-8.26V49.475c0-2.327-.94-3.491-2.819-3.491-1.122 0-2.036.418-2.74 1.255-.705.81-1.057 1.91-1.057 3.295v9.18h-8.261zm35.1 0H64.39V33.862l8.26-1.216v13.456l9.201-7.493 4.228 5.453-5.52 4.629c.365 1.856.9 3.164 1.605 3.922.705.733 1.618 1.099 2.74 1.099.47 0 1.032-.079 1.684-.236l-.587 6.316c-.496.105-.94.17-1.331.196-.392.026-.77.04-1.136.04-2.584 0-4.632-.615-6.146-1.844-1.488-1.256-2.584-3.086-3.289-5.492l-1.448 1.255v5.767zM30.95 66.217c-1.748 0-3.17-.314-4.267-.942-1.07-.627-1.853-1.477-2.35-2.55-.495-1.072-.743-2.275-.743-3.609V46.25h8.26v11.729c0 .601.17 1.072.51 1.412.365.314.796.47 1.292.47.522 0 1.057-.156 1.605-.47l.43 5.453c-.574.444-1.318.784-2.231 1.02-.914.235-1.749.353-2.506.353zm-3.21-22.125c-1.2 0-2.232-.379-3.093-1.137-.861-.785-1.292-1.74-1.292-2.864 0-.785.209-1.465.627-2.04a4.318 4.318 0 011.644-1.412 4.663 4.663 0 012.114-.51c.81 0 1.54.183 2.192.55.679.365 1.214.849 1.606 1.45a3.37 3.37 0 01.626 1.962c0 .785-.222 1.477-.666 2.079a4.32 4.32 0 01-1.644 1.412c-.652.34-1.357.51-2.114.51z" fill="#EA417C"/><path d="M67.552 16.073L78.353 4.832l3.987 6.4-14.788 4.84z" fill="#FC8A4F"/><path d="M78.43 13.163c4.733 0 8.57-2.576 8.57-5.753 0-3.178-3.837-5.754-8.57-5.754-4.732 0-8.569 2.576-8.569 5.754 0 3.177 3.837 5.753 8.57 5.753zM27.84 44.11c2.498 0 4.524-1.815 4.524-4.054 0-2.239-2.025-4.053-4.524-4.053-2.498 0-4.524 1.814-4.524 4.053s2.026 4.054 4.524 4.054z" fill="#FC8A4F"/></svg>