<svg width="34" height="30" fill="none" xmlns="http://www.w3.org/2000/svg"><path d="M12.092 21.983C17.616 21.677 22 17.1 22 11.5 22 5.701 17.299 1 11.5 1S1 5.701 1 11.5c0 2.066.597 3.993 1.627 5.617l-.742 2.227v.003c-.285.852-.427 1.279-.326 1.563a.877.877 0 00.531.53c.283.101.707-.04 1.554-.322l.012-.004 2.227-.742a10.45 10.45 0 006.209 1.611zm0 0s0 0 0 0zm0 0C13.528 26.07 17.422 29 22 29c2.067 0 3.993-.597 5.617-1.628l2.227.742.004.001c.852.284 1.28.427 1.564.326a.873.873 0 00.529-.531c.1-.284-.04-.711-.326-1.566l-.742-2.227.249-.411a10.452 10.452 0 001.377-5.206C32.5 12.701 27.8 8 22 8l-.393.007-.198.01" stroke="#fff" stroke-width="2" stroke-linecap="round" stroke-linejoin="round"/></svg>