<svg width="18" height="21" fill="none" xmlns="http://www.w3.org/2000/svg"><path d="M9 10.5c.619 0 1.149-.206 1.59-.617.44-.412.66-.906.66-1.483 0-.578-.22-1.072-.662-1.484A2.242 2.242 0 009 6.3c-.619 0-1.149.206-1.59.617-.44.412-.66.906-.66 1.483 0 .577.22 1.072.662 1.484.44.411.97.617 1.588.616zM9 21c-3.019-2.398-5.273-4.624-6.764-6.68C.746 12.264.001 10.36 0 8.61c0-2.625.905-4.716 2.715-6.274C4.525.78 6.62 0 9 0c2.381 0 4.477.779 6.287 2.336C17.096 3.894 18 5.985 18 8.61c0 1.75-.745 3.653-2.236 5.71C14.273 16.376 12.018 18.603 9 21z" fill="#54004D"/></svg>