<svg width="37" height="39" fill="none" xmlns="http://www.w3.org/2000/svg"><path d="M18.165 38.116c9.893 0 17.914-8.35 17.914-18.65 0-10.301-8.02-18.652-17.914-18.652C8.272.814.252 9.164.252 19.465s8.02 18.651 17.913 18.651z" fill="#fff" fill-opacity=".08"/><path d="M18.165.814C8.272.814.252 9.165.252 19.465c0 7.906 4.718 14.66 11.382 17.377-.162-1.473-.295-3.745.059-5.357.324-1.458 2.093-9.272 2.093-9.272s-.53-1.12-.53-2.763c0-2.594 1.444-4.528 3.243-4.528 1.534 0 2.27 1.197 2.27 2.625 0 1.596-.972 3.99-1.488 6.217-.428 1.857.899 3.377 2.653 3.377 3.185 0 5.633-3.5 5.633-8.535 0-4.467-3.082-7.583-7.49-7.583-5.102 0-8.095 3.975-8.095 8.09 0 1.596.59 3.315 1.327 4.252a.572.572 0 01.118.537c-.132.583-.442 1.857-.5 2.118-.075.338-.266.415-.605.246-2.241-1.09-3.642-4.483-3.642-7.23 0-5.88 4.099-11.283 11.839-11.283 6.207 0 11.043 4.605 11.043 10.776 0 6.432-3.892 11.605-9.289 11.605-1.813 0-3.523-.982-4.098-2.149l-1.12 4.436c-.399 1.627-1.49 3.654-2.227 4.897 1.68.538 3.45.83 5.308.83 9.893 0 17.913-8.352 17.913-18.652C36.08 9.166 28.06.814 18.165.814z" fill="#fff"/></svg>