<svg width="37" height="39" fill="none" xmlns="http://www.w3.org/2000/svg"><path fill-rule="evenodd" clip-rule="evenodd" d="M11.241 29.757c.71.4 1.5.609 2.302.608 2.671 0 4.852-2.27 4.95-5.099L18.504 0h5.902c0 .537.047 1.072.14 1.6h-4.321 5.902c0 2.115.717 4.158 2.02 5.75l.001.002a7.787 7.787 0 004.47 1.42v1.403c.555.127 1.13.195 1.72.195v6.305c-2.946.004-5.819-.983-8.211-2.82v12.812c0 6.397-4.873 11.603-10.863 11.603-1.492 0-2.968-.329-4.335-.966a10.869 10.869 0 01-3.609-2.735l-.002-.002c-2.801-2.1-4.638-5.575-4.638-9.5 0-6.398 4.874-11.605 10.864-11.605.49.003.979.04 1.464.114v1.493l.102-.003c.05-.002.102-.004.154-.004.49.002.978.04 1.464.114v6.436a4.59 4.59 0 00-1.464-.246c-1.316.002-2.577.561-3.507 1.555-.93.993-1.453 2.34-1.454 3.746 0 1.11.328 2.19.938 3.09h.001zm-6.125 1.05z" fill="#fff"/></svg>